<svg version="1.1" id="adobe" xmlns="http://www.w3.org/2000/svg" xmlns:xlink="http://www.w3.org/1999/xlink" x="0" y="0" viewBox="0 0 120 60" xml:space="preserve" enable-background="new 0 0 120 60"><g><path d="M41.3,56.9l-1,2.7c0,0.1-0.1,0.1-0.1,0.1h-1.5c-0.1,0-0.1,0-0.1-0.1c0.9-2.3,2.2-6.2,3.2-8.9c0-0.1,0.1-0.3,0.1-0.9 c0-0.1,0-0.1,0.1-0.1H44c0.1-0.1,0.1,0,0.1,0c1.1,3.2,2.4,6.6,3.5,9.8c0,0.1,0,0.1-0.1,0.1h-1.7c-0.1,0-0.1,0-0.1-0.1l-1-2.7h-3.4 V56.9z M44.4,55.4c-0.3-1-1.1-3.1-1.3-4.2c-0.2,1-0.9,2.7-1.3,4.2H44.4z M48.6,56.1c0-2.2,1.6-3.9,4.3-3.9c0.3,0,0.7,0,0.9,0.1 v-3.3c0-0.1,0-0.1,0.1-0.1h1.6c0.1,0,0.1,0,0.1,0.1v9v1c0,0.1,0,0.1-0.1,0.1c-1,0.4-2.1,0.8-3.1,0.8C50.1,59.9,48.6,58.7,48.6,56.1 z M53.6,53.8c-0.2-0.1-0.5-0.1-0.9-0.1c-1.4,0-2.3,0.9-2.3,2.4c0,1.8,1,2.4,2.2,2.4c0.3,0,0.8-0.1,1.1-0.1v-4.6H53.6z M64.7,55.9 c0,2.4-1.5,3.9-3.7,3.9c-2.6,0-3.7-2-3.7-3.8c0-2.3,1.5-3.8,3.8-3.8C63.4,52.1,64.7,53.9,64.7,55.9z M59.2,55.9 c0,1.5,0.7,2.5,1.9,2.5c1,0,1.7-0.7,1.7-2.5c0-1.4-0.5-2.5-1.9-2.5C59.9,53.5,59.2,54.4,59.2,55.9z M68,48.9c0.1,0,0.1,0,0.1,0.1 v3.5c0.5-0.2,1.1-0.3,1.6-0.3c2.1,0,3.4,1.5,3.4,3.5c0,2.6-2.1,4.3-4.5,4.3c-0.8,0-1.5-0.1-2.3-0.3c-0.1,0-0.1-0.1-0.1-0.1V49 c0-0.1,0-0.1,0.1-0.1H68z M69.4,53.6c-0.4,0-0.9,0.1-1.2,0.2v4.5c0.2,0.1,0.5,0.1,0.9,0.1c1.1,0,2.4-0.9,2.4-2.6 C71.4,54.4,70.5,53.6,69.4,53.6z M76.6,56.4c0,1.2,0.8,2,2.3,2c0.5,0,1.2-0.1,1.9-0.3c0,0,0.1,0,0.1,0.1v1.2c0,0.1,0,0.1-0.1,0.2 c-0.5,0.3-1.3,0.4-2.3,0.4c-2.7,0-3.8-1.9-3.8-3.8c0-2.2,1.3-3.9,3.6-3.9c2.3,0,3.2,1.8,3.2,3.2c0,0.7-0.1,1-0.1,1h-1.6H76.6z M79,55.2c0.5,0,0.7-0.1,0.7-0.1v-0.2c0-0.4-0.3-1.4-1.5-1.4c-1,0-1.5,0.8-1.6,1.8H79z"/><polygon points="53,30.2 60.2,30.2 63.4,37.9 69.9,37.9 59.8,13.8"/><polygon points="38.6,0 38.6,37.9 54.4,0"/><polygon points="65.4,0 81.2,37.9 81.2,0"/></g></svg>