<?xml version="1.0" encoding="utf-8"?>
<!-- Generator: Adobe Illustrator 23.0.3, SVG Export Plug-In . SVG Version: 6.00 Build 0)  -->
<svg version="1.1" id="aljazeera" xmlns="http://www.w3.org/2000/svg" xmlns:xlink="http://www.w3.org/1999/xlink" x="0px" y="0px"
	 viewBox="0 0 120 60" style="enable-background:new 0 0 120 60;" xml:space="preserve">
<path d="M58.2,40.7l1.6,1.3l-1.5,1.8l-1.6-1.3L58.2,40.7z M66.1,42.4c-0.1-0.2-0.2-0.3-0.3-0.3c0,0,0,0.2,0,0.3
	c0,0.2-0.1,0.3-0.2,0.4c-0.1,0.1-0.5,0.2-0.7-0.3c-0.2-0.4-0.4-0.9-0.5-1c-0.1-0.2-0.2-0.4-0.3-0.3c-0.1,0-0.1,0.1-0.1,0.3
	c0,0.2,0.3,0.9,0.3,0.9c0.2,0.5,0.5,1.1,1,1.4c0.5,0.3,0.7,0.2,0.8,0.2c0.1,0,0.4-0.2,0.3-0.7C66.2,42.7,66.1,42.6,66.1,42.4
	 M55,15.7c0.8,0,1.4-0.7,1.4-1.5c0-0.8-0.7-1.4-1.5-1.4c-0.8,0-1.4,0.7-1.4,1.5C53.5,15.1,54.2,15.7,55,15.7 M64,21.4l-0.2-0.8
	c0,0.1-0.2,0.4-0.4,0.6c-0.1,0.1-0.8,0.9-1.4,1.5c-0.6,0.6-1.1,1.2-1.2,1.3c-0.3,0.3-0.4,0.6-0.4,0.7l0.2,0.8c0-0.2,0.2-0.4,0.4-0.6
	c0.1-0.1,0.8-0.9,1.4-1.5c0.6-0.6,1.1-1.2,1.2-1.3C63.9,21.9,64,21.6,64,21.4 M61,31l1.8,0.9l1-2.1L62,28.8L61,31z M68,32.7l-1,2.1
	l1.8,0.9l1-2.1L68,32.7z M58.5,37.5L57,39.3l1.6,1.3l1.5-1.8L58.5,37.5z M52.3,22.7c0,0,0.4-0.3,0.3-0.5c-0.1-0.1-0.4,0.2-0.4,0.2
	s-1.1,0.8-1.6,1.9c-0.3,0.7-0.3,1.4-0.1,1.7c0.2,0.3,0.5,0.7,1,0.3c0.4-0.3,0.5-0.7,0.6-1c0-0.2,0.1-0.3,0.1-0.4
	c0-0.1,0-0.2-0.2-0.2c-0.3,0.1-0.1,0.6-0.4,0.8c-0.2,0.1-0.6,0-0.7-0.4c-0.1-0.5,0.3-1.1,0.6-1.4C51.7,23.2,52.3,22.7,52.3,22.7
	 M56.9,33.7c-0.3,3.3-0.6,7.7-3.4,8.4c-2.7,0.6-4.6-1.4-5.7-3.7c-0.8-1.8-0.9-4.3-0.9-5.7c0-0.1-0.1-0.1-0.1-0.1s-0.5-1-0.8-2.3
	c-0.3-1-0.4-2.3-0.3-3.2c0.2-2.1,0.9-4.7,3.9-7.1c2.2-1.7,5.2-3.1,6.5-4.2c1.3-1.1,1.8-2,1.6-3.1l0,0c-0.3,0.3-0.6,0.5-1.1,0.5
	c-0.8,0-1.4-0.6-1.5-1.4c0-0.8,0.6-1.4,1.4-1.5c0.7,0,1.1,0.2,1.4,0.8c0.3,0.6,0.6,2.1,0.6,3.6c0,1.2,0,2.4-0.6,4.1
	c-1.2,3.2-4.8,8.4-4.8,15.7c0,1.4,0.1,2.7,0.4,3.9c-0.2,0.2-0.4,0.4-0.6,0.5c-0.4-1.7-0.6-3.6-0.6-5.9c0.1-7.4,3.7-12.6,4.9-15.8
	c0.3-0.8,0.5-1.6,0.6-2.2c-0.3,0.7-0.8,1.4-1.6,2.1c-1.3,1-3.7,2.3-5.7,4c-2.9,2.4-3.6,4.9-3.8,6.9c-0.1,0.8,0,1.9,0.3,2.8
	c0.2-1.1,0.8-2.5,2-2.6c1.6-0.1,2.4,2.2,2.7,2.9c0.3,0.8,0.9,4.1-1.1,4.4c-1.2,0.2-2.2-0.7-2.9-1.6c0,0.1,0,0.2,0,0.3
	c0,1.9,0.7,5.5,3.7,5.5c0.5,0,1-0.1,1.4-0.3c1.6-0.7,2.5-2.8,3-7.3c0.2-1.6,0.7-2,0.8-2.1c0.1-0.1,1.6-1.4,2.1-1.9
	c0.5-0.5,0.9-1,1-1.3l0.3,2.1c0,0,0.1,0.6-0.1,1c-0.2,0.4-0.5,0.6-0.8,0.9c-0.5,0.4-1.6,1.5-2,1.8C57.1,33.1,57,33.2,56.9,33.7
	 M49.5,31.1c-0.7,0.4-1.1,1-1.3,1.7c1.1,0.9,2.8,0.6,2.9-0.9C51.1,31.9,50.6,30.5,49.5,31.1 M58.2,32.6l-0.7,0.7
	c0.8,1.8,2,3.4,3.3,4.5c0.1-0.9,0.3-1.6,0.4-2.1C59.9,34.7,58.9,33.7,58.2,32.6 M68.9,21.3C68.9,21.3,68.9,21.3,68.9,21.3
	C68.8,21.3,68.8,21.3,68.9,21.3C68.8,21.4,68.8,21.4,68.9,21.3c-0.6,0.8-1.5,1.6-2.3,2.2c0.5-1.3,0.3-2.2,0.1-3v0c0,0,0-0.1,0-0.1
	l0,0c-0.8-3.2-4.2-6.1-5.6-7.7c-1.9-2.1-1.3-3.5-0.6-4.4c0.1,0.2,0.3,0.4,0.4,0.6c2.6,3.6,7.6,9.2,10.2,14.6c0.7,1.4,1.2,2.7,1.4,4
	c1,5.6-2.9,11.2-8.8,9.7l0,0c0,0-0.1,0-0.1,0c-0.2,0.5-0.3,1.3-0.5,2.4c0.9,0.4,1.8,0.6,2.8,0.6l0,0c0.1,0,0.1,0,0.2,0
	c4.8,0.1,8.6-3.5,7.9-11.1c0,0-0.3-3.1-1.9-6.4C69.6,16.7,64.8,11,61.8,7.3c-0.9-1.2-1.5-2.2-1.8-3.1c-0.6-1.7-0.2-3,0.5-3.6
	c0.2-0.1,0.3-0.3,0.5-0.4c0.1-0.1,0.1-0.2,0-0.2c-0.1,0-0.3,0-0.8,0.3C59.6,0.8,59,2,59,3.8c0,1.1,0.3,2.4,1.1,3.8
	c-1.1,1.5-1.3,2.9-0.9,4.3c0.4,1,0.5,1.3,0.7,1.9c0.4,1.6,0,3.4-1.3,6.3c-1,2.4-2.3,4.8-2.3,7.8c0,0.7,0.1,1.4,0.2,2
	c0.1-0.1,0.4-0.3,0.7-0.6c-0.1-2.4,0.8-4.7,1.9-6.8c1.7-3.1,1.9-6.3,1.6-8c1.2,1.3,3.2,3.1,4.3,5.1c0.4,0.6,0.6,1.3,0.7,1.9
	c0.1,1.5-0.4,2.6-1.4,3.7c-0.8,0.9-0.5,1.7-0.5,1.9c0.1,0.3,0.4,1.2,0.6,1.9c0.9-1.7,3.3-2.7,4.4-4.1c0.3,1.8-1.1,3.4-2.1,4.5
	c-0.2,0.2-0.5,0.5-0.8,0.8c-1.9,1.8-3.1,3-3.7,4.1c-0.2,0.2-0.4,0.8-0.6,1.2c-0.2,0.5-0.4,1.5-0.6,3.1c-0.2,1-0.3,2.1-0.4,2.6
	c-0.1,1.2-0.5,3-1.9,3.5c-0.1,0-0.2,0-0.2,0.1l0,0c-1.4,0.3-2.8-0.8-3.8-2.9c-0.2,0.2-0.4,0.3-0.7,0.4c1.4,3.2,3.4,4.7,5.3,4.7
	c1.4,0,2.5-0.7,2.8-2.7c0.2-1,0.3-2.1,0.4-3.2c0.1-0.5,0.3-3.5,0.8-4.6c0.6-1.2,1.9-2.4,3.8-4.3c1.2-1.2,1.8-2.2,2.2-3.1
	C70.5,27.1,69.1,22.2,68.9,21.3 M46,56.4h-1.9v-4.7h-1.6v6.1H46V56.4z M49,57.8v-6.1h-1.6v5.7c0,0.9-0.3,1.3-1.1,1.1
	c0,0-0.1,0-0.1,0l-0.4,1.3c0.1,0,0.2,0.1,0.3,0.1C47.8,60.4,49,59.5,49,57.8 M66.6,56.5H64v-1.1h2v-1.3h-2V53h2.4v-1.3h-3.9v6.1h4.1
	V56.5z M72,56.5h-2.6v-1.1h2v-1.3h-2V53h2.4v-1.3h-3.9v6.1H72V56.5z M39.4,51.7l2.1,6.1h-1.7l-0.3-1.1h-2l-0.4,1.1h-1.6l2.1-6.1
	H39.4z M39.1,55.3l-0.6-1.9L38,55.3H39.1z M53.8,56.6h-2l-0.4,1.1h-1.6l2.1-6.1h1.7l2.1,6.1h-1.7L53.8,56.6z M53.4,55.3l-0.6-1.9
	l-0.6,1.9H53.4z M84.4,57.7h-1.7l-0.3-1.1h-2L80,57.7h-1.6l2.1-6.1h1.7L84.4,57.7z M82,55.3l-0.6-1.9l-0.6,1.9H82z M77.2,55.5
	c0,0.1,0.1,0.1,0.1,0.2l0.8,2h-1.6l-0.6-1.5l0-0.1l-0.1-0.2c-0.1-0.3-0.3-0.4-0.5-0.4h-0.4v2.3h-1.6v-6.1h2.5c1,0,1.6,0.4,1.8,1.1
	c0.3,0.9-0.1,1.7-0.7,2c0,0-0.1,0-0.1,0C76.8,54.9,76.9,55,77.2,55.5 M75.8,54c0.2-0.3,0.2-0.7-0.1-0.8c-0.1-0.1-0.2-0.1-0.4-0.1
	c0,0-0.1,0-0.1,0h-0.5v1.1h0.5h0.1C75.6,54.1,75.8,54.1,75.8,54 M61.1,56.4h-2.3l2.2-3.2v-1.5h-4.2V53H59l-2.2,3.2v1.6h4.3V56.4z"/>
</svg>
