<?xml version="1.0" encoding="utf-8"?>
<!-- Generator: Adobe Illustrator 23.0.3, SVG Export Plug-In . SVG Version: 6.00 Build 0)  -->
<svg version="1.1" id="audible" xmlns="http://www.w3.org/2000/svg" xmlns:xlink="http://www.w3.org/1999/xlink" x="0px" y="0px"
	 viewBox="0 0 120 60" style="enable-background:new 0 0 120 60;" xml:space="preserve">
<g>
	<path d="M34.2,27.4v2.5l-14.6,9.2L5,29.9v-2.5l14.6,9.2L34.2,27.4z M19.6,25.1c-3.3,0-6.2,1.7-7.8,4.3c0.1-0.1,0.2-0.2,0.3-0.3
		c4.1-3.4,10-2.7,13.2,1.7l2.1-1.4C25.8,26.8,22.9,25.1,19.6,25.1 M19.6,29.3c-1.8,0-3.4,0.9-4.3,2.2c0.8-0.6,1.7-0.9,2.6-0.9
		c1.6,0,3,0.8,3.9,2.2l2-1.3C23,30.2,21.4,29.3,19.6,29.3 M9.7,25.6c6-4.8,14.5-3.5,19.1,2.9l0,0l2.2-1.4c-2.4-3.8-6.7-6.3-11.4-6.3
		c-4.7,0-9,2.5-11.4,6.3C8.6,26.6,9.2,26,9.7,25.6"/>
	<path d="M43.4,41.7c-0.1,0.2-0.3,0.4-0.6,0.5c-0.3,0.1-0.5,0.2-0.8,0.2c-0.2,0-0.4,0-0.6-0.1c-0.2,0-0.3-0.1-0.4-0.3
		c-0.1-0.1-0.2-0.2-0.3-0.4c-0.1-0.2-0.1-0.4-0.1-0.5c0-0.4,0.1-0.6,0.3-0.8c0.2-0.2,0.4-0.3,0.7-0.4c0.3-0.1,0.6-0.1,0.9-0.2
		c0.3,0,0.7,0,1,0v-0.3c0-0.3-0.1-0.6-0.3-0.7c-0.2-0.2-0.4-0.3-0.7-0.3c-0.3,0-0.6,0-0.7,0.2c-0.1,0.2-0.3,0.3-0.3,0.6
		c-0.1,0-0.2,0-0.3,0h-0.3c0-0.4,0.2-0.7,0.5-0.9c0.3-0.2,0.7-0.3,1.2-0.3c0.5,0,0.9,0.1,1.2,0.4c0.3,0.3,0.4,0.6,0.4,1.2v2.7h-0.4
		L43.4,41.7z M43.4,40.2c-0.3,0-0.7,0-1,0c-0.3,0-0.5,0-0.7,0.1c-0.2,0.1-0.3,0.1-0.4,0.3c-0.1,0.1-0.1,0.3-0.1,0.5
		c0,0.3,0.1,0.4,0.2,0.6c0.1,0.1,0.3,0.2,0.6,0.2c0.2,0,0.4,0,0.6-0.1c0.2,0,0.3-0.2,0.4-0.3c0.1-0.1,0.2-0.3,0.3-0.4
		c0-0.2,0.1-0.4,0.1-0.5L43.4,40.2z M45.4,42.3H46v-2c0-0.2,0-0.4,0-0.6c0-0.2,0.1-0.4,0.2-0.5c0.1-0.1,0.2-0.3,0.4-0.4
		c0.2-0.1,0.4-0.1,0.6-0.1c0.3,0,0.5,0.1,0.7,0.3c0.1,0.2,0.2,0.5,0.2,0.8v2.6h0.6v-2.7c0-0.5-0.1-0.9-0.3-1.1
		c-0.3-0.3-0.6-0.4-1.1-0.4c-0.3,0-0.5,0.1-0.8,0.2c-0.3,0.2-0.4,0.4-0.6,0.6l-0.2-0.7h-0.3L45.4,42.3z M84.2,41h-0.6
		c-0.1,0.3-0.2,0.5-0.3,0.7c-0.1,0.2-0.4,0.3-0.7,0.3c-0.3,0-0.4-0.1-0.6-0.1c-0.2-0.1-0.3-0.2-0.4-0.4c-0.1-0.2-0.2-0.4-0.2-0.5
		c0-0.2,0-0.4,0-0.6s0-0.4,0-0.6c0-0.2,0.1-0.4,0.2-0.5c0.1-0.1,0.2-0.3,0.4-0.4c0.2-0.1,0.3-0.1,0.6-0.1c0.3,0,0.6,0.1,0.7,0.3
		c0.2,0.2,0.3,0.4,0.3,0.7h0.6c0-0.3,0-0.4-0.1-0.6c-0.1-0.2-0.2-0.3-0.3-0.4c-0.2-0.1-0.3-0.2-0.5-0.3c-0.2-0.1-0.4-0.1-0.6-0.1
		c-0.3,0-0.6,0-0.8,0.2c-0.3,0.1-0.5,0.3-0.6,0.5c-0.1,0.2-0.3,0.4-0.3,0.7c-0.1,0.3-0.1,0.5-0.1,0.9c0,0.3,0.1,0.6,0.1,0.9
		c0.1,0.3,0.2,0.5,0.3,0.7c0.2,0.2,0.4,0.3,0.6,0.4c0.2,0.1,0.5,0.2,0.8,0.2c0.5,0,0.8-0.2,1.2-0.4C84,41.8,84.2,41.4,84.2,41
		L84.2,41z M87,42.4c-0.3,0-0.6,0-0.8-0.2c-0.2-0.1-0.4-0.3-0.6-0.4c-0.2-0.2-0.3-0.4-0.3-0.7c-0.1-0.3-0.1-0.6-0.1-0.9
		c0-0.3,0-0.6,0.1-0.9c0.1-0.3,0.2-0.5,0.3-0.7c0.1-0.2,0.3-0.4,0.6-0.4c0.2-0.1,0.5-0.2,0.8-0.2c0.3,0,0.6,0,0.8,0.2
		c0.2,0.1,0.4,0.3,0.6,0.4c0.1,0.2,0.3,0.4,0.3,0.7c0.1,0.3,0.1,0.6,0.1,0.9c0,0.3,0,0.6-0.1,0.9c-0.1,0.3-0.2,0.5-0.3,0.7
		c-0.2,0.2-0.3,0.4-0.6,0.4C87.5,42.4,87.2,42.4,87,42.4 M87,41.9c0.3,0,0.4,0,0.6-0.1c0.2-0.1,0.3-0.2,0.4-0.4
		c0.1-0.1,0.2-0.4,0.2-0.5c0-0.2,0-0.4,0-0.6c0-0.2,0-0.4,0-0.6c0-0.2-0.1-0.4-0.2-0.5c-0.1-0.2-0.2-0.3-0.4-0.4
		c-0.2-0.1-0.3-0.1-0.6-0.1c-0.3,0-0.4,0-0.6,0.1c-0.2,0.1-0.3,0.2-0.4,0.4c-0.1,0.1-0.2,0.4-0.2,0.5c0,0.2,0,0.4,0,0.6
		c0,0.2,0,0.4,0,0.6c0,0.2,0.1,0.4,0.2,0.5c0.1,0.1,0.2,0.3,0.4,0.4C86.5,41.9,86.7,41.9,87,41.9 M95.7,42.3v-2.8
		c0-0.5-0.1-0.8-0.3-1.1c-0.3-0.2-0.6-0.4-1-0.4c-0.3,0-0.6,0-0.8,0.2c-0.2,0.2-0.4,0.4-0.6,0.6c-0.1-0.3-0.2-0.5-0.4-0.6
		c-0.2-0.1-0.4-0.2-0.8-0.2c-0.3,0-0.5,0.1-0.7,0.2c-0.2,0.1-0.4,0.3-0.6,0.6l-0.2-0.6H90v4.1h0.6v-2.2c0-0.3,0-0.4,0.1-0.6
		c0-0.2,0.1-0.3,0.3-0.4c0.1-0.1,0.2-0.2,0.3-0.3c0.1-0.1,0.3-0.1,0.4-0.1c0.3,0,0.5,0.1,0.6,0.3c0.2,0.2,0.2,0.4,0.2,0.8v2.7h0.6
		v-2.5c0-0.2,0-0.4,0.1-0.5c0-0.1,0.1-0.3,0.3-0.4c0.1-0.1,0.2-0.2,0.3-0.3c0.2,0,0.3-0.1,0.4-0.1c0.3,0,0.5,0.1,0.6,0.3
		c0.2,0.1,0.2,0.4,0.2,0.8v2.7H95.7z M97,38.2h0.4l0.2,0.6c0.1-0.2,0.3-0.4,0.6-0.6c0.2-0.1,0.5-0.2,0.8-0.2c0.3,0,0.6,0,0.8,0.2
		c0.2,0.1,0.4,0.3,0.6,0.5c0.1,0.2,0.3,0.4,0.3,0.7c0,0.3,0.1,0.5,0.1,0.8c0,0.3,0,0.6-0.1,0.9c-0.1,0.3-0.2,0.5-0.3,0.7
		c-0.1,0.2-0.3,0.4-0.6,0.4c-0.2,0.1-0.5,0.2-0.8,0.2c-0.3,0-0.5,0-0.7-0.2c-0.2-0.1-0.4-0.3-0.6-0.5v2.2H97v-5.7h0V38.2z
		 M97.5,40.2c0,0.3,0,0.5,0,0.7c0,0.2,0.1,0.4,0.2,0.6c0.1,0.1,0.2,0.3,0.4,0.4c0.2,0.1,0.3,0.1,0.6,0.1c0.4,0,0.7-0.1,0.9-0.4
		c0.2-0.3,0.3-0.7,0.3-1.2c0-0.5-0.1-0.9-0.3-1.2c-0.2-0.3-0.5-0.4-0.9-0.4c-0.2,0-0.4,0-0.6,0.1c-0.2,0.1-0.3,0.2-0.4,0.4
		c-0.1,0.1-0.2,0.3-0.3,0.5C97.6,39.8,97.5,40,97.5,40.2z M104.3,41.7c-0.1,0.2-0.3,0.4-0.6,0.5c-0.3,0.1-0.5,0.2-0.8,0.2
		c-0.2,0-0.4,0-0.6-0.1c-0.2,0-0.3-0.1-0.4-0.3c-0.1-0.1-0.2-0.2-0.3-0.4c-0.1-0.2-0.1-0.4-0.1-0.5c0-0.4,0.1-0.6,0.3-0.8
		c0.2-0.2,0.4-0.3,0.7-0.4c0.3-0.1,0.6-0.1,0.9-0.2c0.3,0,0.7,0,1,0v-0.3c0-0.3-0.1-0.6-0.3-0.7c-0.2-0.2-0.4-0.3-0.7-0.3
		c-0.3,0-0.6,0-0.7,0.2c-0.2,0.1-0.3,0.3-0.3,0.6c-0.1,0-0.2,0-0.3,0h-0.3c0-0.4,0.2-0.7,0.5-0.9c0.3-0.2,0.7-0.3,1.2-0.3
		c0.5,0,0.9,0.1,1.2,0.4c0.3,0.3,0.4,0.6,0.4,1.2v2.7h-0.5L104.3,41.7z M104.3,40.2c-0.3,0-0.7,0-1,0c-0.3,0-0.5,0-0.7,0.1
		c-0.2,0.1-0.3,0.1-0.4,0.3c-0.1,0.1-0.1,0.3-0.1,0.5c0,0.3,0.1,0.4,0.2,0.6c0.1,0.1,0.3,0.2,0.6,0.2c0.2,0,0.4,0,0.6-0.1
		c0.2,0,0.3-0.2,0.4-0.3c0.1-0.1,0.2-0.3,0.3-0.4c0-0.2,0.1-0.4,0.1-0.5L104.3,40.2z M106.3,42.3h0.6v-2c0-0.2,0-0.4,0-0.6
		c0-0.2,0.1-0.4,0.2-0.5c0.1-0.1,0.2-0.3,0.4-0.4c0.2-0.1,0.4-0.1,0.6-0.1c0.3,0,0.5,0.1,0.7,0.3c0.1,0.2,0.2,0.5,0.2,0.8v2.6h0.6
		v-2.7c0-0.5-0.1-0.9-0.3-1.1c-0.3-0.3-0.6-0.4-1.1-0.4c-0.3,0-0.5,0-0.8,0.2c-0.3,0.2-0.4,0.4-0.6,0.6l-0.2-0.7h-0.3L106.3,42.3z
		 M110.6,43.8c0.1,0,0.2,0,0.4,0c0.1,0,0.2,0,0.3,0c0.2,0,0.4,0,0.5-0.1c0.1,0,0.3-0.1,0.3-0.3c0.1-0.1,0.2-0.3,0.3-0.4
		c0-0.2,0.1-0.4,0.2-0.6c0.3-0.7,0.6-1.4,0.8-2.2c0.3-0.7,0.6-1.4,0.8-2.2h-0.6c-0.2,0.5-0.4,1.1-0.6,1.7c-0.2,0.5-0.4,1.1-0.6,1.7
		c-0.3-0.5-0.5-1.1-0.7-1.7c-0.3-0.5-0.5-1.1-0.7-1.7h-0.7c0.3,0.6,0.6,1.4,0.8,2c0.3,0.6,0.6,1.3,0.8,2c-0.1,0.2-0.2,0.4-0.2,0.5
		c0,0.1-0.1,0.2-0.2,0.4c-0.1,0.1-0.1,0.2-0.2,0.2c-0.1,0-0.2,0.1-0.3,0.1c-0.1,0-0.2,0-0.3,0c-0.1,0-0.2,0-0.2,0c0,0.1,0,0.2,0,0.3
		C110.7,43.7,110.6,43.7,110.6,43.8 M67.9,43.9c0.3-0.2,0-0.4-0.2-0.4c-1.7,0.7-3.5,1-5.2,1c-2.5,0-4.9-0.6-6.8-1.8
		c-0.2-0.1-0.3,0.1-0.2,0.2c1.8,1.6,4.1,2.6,6.7,2.6C64.2,45.6,66.4,45,67.9,43.9 M68.5,43.3c0.2,0.3-0.2,1.2-0.4,1.7
		c0,0.1,0.1,0.2,0.2,0.1c0.8-0.6,1-2,0.8-2.2c-0.2-0.2-1.6-0.4-2.4,0.2c-0.1,0.1-0.1,0.3,0,0.2C67.2,43.1,68.3,43,68.5,43.3
		 M66.7,38.8c0,0.1,0.1,0.1,0.1,0.1h1.3l-1.6,2.2c-0.1,0.1-0.1,0.3-0.1,0.4v0.6c0,0.1,0.1,0.2,0.2,0.1c0.9-0.5,2-0.4,2.8,0
		c0.1,0,0.2-0.1,0.2-0.1v-0.6c0-0.1,0-0.2-0.1-0.2C69.1,41,68.6,41,68,41l1.4-1.9c0.1-0.1,0.2-0.3,0.2-0.4v-0.5
		c0-0.1-0.1-0.1-0.1-0.1h-2.6c-0.1,0-0.1,0.1-0.1,0.1V38.8 M57.2,42.4c0.1,0,0.2-0.1,0.2-0.1v-2.2c0-0.5,0-1.1,0.6-1.1
		c0.6,0,0.5,0.7,0.5,1.1v2.2c0,0.1,0.1,0.1,0.1,0.1h0.8c0.1,0,0.2-0.1,0.2-0.1v-2.2c0-0.3,0-0.6,0.1-0.8c0.1-0.2,0.3-0.4,0.5-0.4
		s0.4,0.1,0.5,0.4c0.1,0.1,0,0.6,0,0.7v2.2c0,0.1,0.1,0.1,0.1,0.1h0.8c0.1,0,0.2-0.1,0.2-0.1v-2.6c0-0.4,0-0.9-0.2-1.2
		c-0.3-0.3-0.6-0.4-0.9-0.4c-0.5,0-0.9,0.2-1.1,0.7c-0.3-0.5-0.5-0.7-1.1-0.7c-0.5,0-0.8,0.2-1.1,0.7h0v-0.5c0-0.1-0.1-0.1-0.1-0.1
		h-0.7c-0.1,0-0.2,0.1-0.2,0.1v4c0,0.1,0.1,0.1,0.1,0.1H57.2 M72,38c1.2,0,1.8,1,1.8,2.2c0,1.2-0.7,2.2-1.8,2.2
		c-1.2,0-1.8-1-1.8-2.2C70.2,39,70.8,38,72,38 M72,38.9c-0.6,0-0.6,0.8-0.6,1.3c0,0.5,0,1.6,0.6,1.6c0.6,0,0.6-0.8,0.6-1.4
		c0-0.4,0-0.7-0.1-1.1C72.4,38.9,72.2,38.9,72,38.9 M75.3,42.4c0.1,0,0.1-0.1,0.1-0.1v-2.2c0-0.2,0-0.5,0.1-0.7
		c0.1-0.2,0.3-0.4,0.5-0.4c0.6,0,0.5,0.6,0.5,1.1v2.2c0,0.1,0.1,0.1,0.1,0.1h0.8c0.1,0,0.2-0.1,0.2-0.1v-2.6c0-0.4,0-0.9-0.2-1.2
		c-0.2-0.3-0.6-0.5-0.9-0.5c-0.5,0-0.8,0.3-1.1,0.8h0v-0.6c0-0.1-0.1-0.1-0.1-0.1h-0.7c-0.1,0-0.2,0.1-0.2,0.1v4
		c0,0.1,0.1,0.1,0.1,0.1H75.3 M66,41.6c-0.1-0.2-0.3-0.4-0.3-0.7v-1.2c0-0.5,0-1-0.3-1.3c-0.3-0.3-0.8-0.4-1.2-0.4
		c-0.8,0-1.6,0.3-1.8,1.2c0,0.1,0.1,0.1,0.1,0.2l0.8,0.1c0.1,0,0.1,0,0.1-0.1c0-0.4,0.3-0.5,0.6-0.5c0.2,0,0.3,0.1,0.4,0.2
		c0.2,0.1,0.1,0.4,0.1,0.6v0.1c-0.4,0-1.1,0-1.5,0.3c-0.5,0.2-0.8,0.6-0.8,1.3c0,0.8,0.5,1.2,1.2,1.2c0.6,0,0.9-0.1,1.3-0.6
		c0.2,0.2,0.2,0.3,0.5,0.5c0.1,0,0.2,0,0.2,0c0.2-0.1,0.5-0.4,0.6-0.6C66.1,41.8,66.1,41.7,66,41.6z M64.7,40.5c0,0.3,0,0.6-0.1,0.8
		c-0.1,0.2-0.3,0.4-0.6,0.4c-0.3,0-0.5-0.2-0.5-0.6c0-0.7,0.6-0.8,1.2-0.8L64.7,40.5L64.7,40.5z M55.6,41.6
		c-0.1-0.2-0.3-0.4-0.3-0.7v-1.2c0-0.5,0-1-0.3-1.3c-0.3-0.3-0.8-0.4-1.2-0.4c-0.8,0-1.6,0.3-1.8,1.2c0,0.1,0.1,0.1,0.1,0.2l0.8,0.1
		c0.1,0,0.1,0,0.1-0.1c0-0.4,0.3-0.5,0.6-0.5c0.2,0,0.3,0.1,0.4,0.2c0.1,0.1,0.1,0.4,0.1,0.6v0.1c-0.4,0-1.1,0-1.5,0.3
		c-0.5,0.2-0.8,0.6-0.8,1.3c0,0.8,0.5,1.2,1.2,1.2c0.6,0,0.9-0.1,1.3-0.6c0.2,0.2,0.2,0.3,0.5,0.5c0.1,0,0.2,0,0.2,0
		c0.2-0.1,0.5-0.4,0.6-0.6C55.7,41.8,55.7,41.7,55.6,41.6z M54.2,40.5c0,0.3,0,0.6-0.1,0.8c-0.1,0.2-0.3,0.4-0.6,0.4
		c-0.3,0-0.5-0.2-0.5-0.6c0-0.7,0.6-0.8,1.2-0.8L54.2,40.5L54.2,40.5z M53.1,28.1c0,3.3,1.9,5.1,4.6,5.1c1.9,0,3.2-0.9,3.9-1.8
		l1.1,1.6h1.7V19.3h-2.9v9.3c0,0.7-0.7,2-2.9,2c-1,0-2.7-0.5-2.7-2.6v-8.7h-2.9V28.1 M85.6,14.5V33h1.6l1.1-1.6c0.8,1,2,1.9,3.9,1.9
		c2.5,0,4.6-1.6,4.6-5V24c0-3.4-2.1-5-4.8-5c-1.8,0-3.1,0.8-3.7,1.6v-6.2L85.6,14.5z M91.4,30.7c-1.8,0-3-0.9-3-2.7v-3.8
		c0-1.5,1.2-2.6,3-2.6c1.3,0,2.6,1,2.6,2.6V28C94,29.7,92.7,30.7,91.4,30.7z M74.9,14.5v6.2c-0.6-0.8-1.9-1.6-3.7-1.6
		c-2.6,0-4.8,1.6-4.8,5v4.2c0,3.4,2.1,5,4.6,5c1.9,0,3.2-0.9,3.9-1.9L76,33h1.6V14.5L74.9,14.5L74.9,14.5z M69.1,28.1v-3.8
		c0-1.6,1.3-2.6,2.6-2.6c1.9,0,3,1.1,3,2.6V28c0,1.9-1.2,2.7-3,2.7C70.5,30.7,69.1,29.7,69.1,28.1z M98.7,33h2.9V14.5h-2.9V33z
		 M80.2,33h2.9V19.3h-2.9V33z M81.7,14.4c-0.9,0-1.6,0.7-1.6,1.6c0,0.9,0.7,1.6,1.6,1.6c0.9,0,1.6-0.7,1.6-1.6
		C83.3,15.1,82.6,14.4,81.7,14.4 M109.5,30.7c-2,0-2.9-1-2.9-2.5v-1.1h8.4V24c0-3.2-2.2-5-5.6-5c-3.5,0-5.8,2-5.8,5.1v4.2
		c0,3.2,2.3,5,5.8,5c2.6,0,4.5-1.1,5.3-2.9l-2-1.3C112,30.1,111,30.7,109.5,30.7z M106.6,24c0-1.4,1-2.4,2.8-2.4
		c1.8,0,2.8,1,2.8,2.4v0.9h-5.6L106.6,24z M45.7,19c-2.8,0-4.6,1.1-5.2,2.8l2.2,1.4c0.9-1.5,1.8-1.6,3-1.6c1.8,0,2.5,0.8,2.5,2.2
		v1.1h-2.4c-1.8,0-6.1,0.6-6.1,4.4c0,2.7,2,4,4.4,4c1.9,0,3.3-0.9,4.1-1.9l1.1,1.6h1.7v-9.4C51.1,20.9,49.3,19,45.7,19z M48.3,28.6
		c0,0.2,0,0.5-0.3,0.8c-0.4,0.6-1.5,1.2-2.8,1.2c-1.4,0-2.4-0.6-2.4-1.7c0-1.6,2.6-2,4.3-2.1h1.2L48.3,28.6z"/>
</g>
</svg>
