<svg version="1.1" id="sega" xmlns="http://www.w3.org/2000/svg" xmlns:xlink="http://www.w3.org/1999/xlink" x="0" y="0" viewBox="0 0 120 60" xml:space="preserve" enable-background="new 0 0 120 60"><g><g><path d="M62.2,25.6c0,0,0.1-2.1-2.8-2.3h-2.8v5H59C59,28.4,62.2,28.3,62.2,25.6z"/><path d="M60.3,31.4h-3.7v5.3h3.7c0,0,3.7,0.2,3.7-2.7C64,33.9,64.1,31.4,60.3,31.4z"/><path d="M45.7,16.6v26.9h28.7V16.6H45.7z M67.5,34.2c0,5.5-6.5,5.5-6.5,5.5h-7.8V20.3H60c6.1,0.6,5.8,5.2,5.8,5.2 c0,2.8-2.5,3.9-2.5,3.9C67.7,30.5,67.5,34.2,67.5,34.2z"/></g><g><path d="M27.2,31.4h-3.7v5.3h3.7c0,0,3.7,0.2,3.7-2.7C30.9,33.9,31,31.4,27.2,31.4z"/><path d="M12.6,16.6v26.9h28.7V16.6H12.6z M34.5,34.2c0,5.5-6.5,5.5-6.5,5.5h-7.8V20.3h6.8c6.1,0.6,5.8,5.2,5.8,5.2 c0,2.8-2.5,3.9-2.5,3.9C34.6,30.5,34.5,34.2,34.5,34.2z"/><path d="M29.2,25.6c0,0,0.1-2.1-2.8-2.3h-2.8v5H26C26,28.4,29.2,28.3,29.2,25.6z"/></g><path d="M78.7,16.6v26.9h28.7V16.6H78.7z M101.7,38.1c0,0-5.9,3.5-12.7,0.8c0,0-5.7-2.1-6-8.9c0,0-0.2-7,7.4-9.4c0,0,2-0.8,5.7-0.4 c0,0,2.2,0.2,5.4,1.5v3.6c0,0-3.5-2.1-7.4-2.2c0,0-7.2-0.1-7.5,6.9c0,0-0.3,6.5,7.5,6.8c0,0,3.2,0.4,7.6-2.4V38.1z"/></g></svg>