<?xml version="1.0" encoding="utf-8"?>
<!-- Generator: Adobe Illustrator 23.0.3, SVG Export Plug-In . SVG Version: 6.00 Build 0)  -->
<svg version="1.1" id="disney" xmlns="http://www.w3.org/2000/svg" xmlns:xlink="http://www.w3.org/1999/xlink" x="0px" y="0px"
	 viewBox="0 0 120 60" style="enable-background:new 0 0 120 60;" xml:space="preserve">
<path d="M60.3,12.2c0.8,0,1.5,0.3,2,0.8c0.8,0.7,1,1.9,0.6,2.9c-1.4,2.9-4.8,4.9-7.1,5.5c-1.4,0.3-3.1,0.3-4.4-0.2
	c-0.6,0.4-1.1,1.5-1.9,1.1c-1.1-0.8-0.1-2.2-0.8-3.1c-0.1-0.2-0.5-0.2-0.6-0.5c-0.9-1.9,0.2-3.7,1.4-5.1
	C51.6,11.5,57.2,9.1,60.3,12.2L60.3,12.2L60.3,12.2L60.3,12.2z M53.8,13.7c-1.1,0.2-2.3,0.7-3,1.5c-0.7,0.8-1.1,1.5-0.7,2.4
	c1.4-1.1,2.1-2.5,3.7-3.4C53.8,13.9,54,13.8,53.8,13.7L53.8,13.7L53.8,13.7L53.8,13.7z M60.4,14.1c-2.8-0.2-4.9,1.9-6.9,3.9
	c-0.1,0.3-0.9,0.7-0.3,1.1c2.7,0.2,5.2-0.5,7.2-2.3c0.6-0.5,1-1.2,0.7-1.9C61,14.5,60.7,14.2,60.4,14.1L60.4,14.1L60.4,14.1
	L60.4,14.1z M84.7,26.2L84.7,26.2L84.7,26.2c-0.8-1.6-1.6-3.5-3.4-4.3c-0.7,0.4-0.3,1.5-0.3,2.2c0.7,2.5,1.4,5,1.7,7.6
	c0,0.7,0.4,1.8-0.4,2.2c-1-1.1-1.7-2.6-2.5-3.8c-1.2-1.7-2.2-3.9-4.2-4.7c-1.3,1.1-1.5,2.8-2.1,4.3c-0.2,2.9-1.2,5.9-0.3,8.8
	c0.3,0.7,0.9,1.1,1.7,1c1.9-2.2,0.8-5.8,1.4-8.6c0.1-0.1,0.1-0.4,0.4-0.3c1.7,2.8,2.8,5.8,5.5,8c0.7,0.6,1.9-0.1,2.5-0.9
	C87.1,34.3,86,29.3,84.7,26.2L84.7,26.2z M72.4,25.2L72.4,25.2L72.4,25.2c-0.1-0.4-0.5-0.5-0.8-0.6c-4.8-0.9-10.5-1.2-14.3,2.2
	c-0.7,0.8-0.7,2.2-0.4,3.1c0.2,0.5,0.9,0.9,1.5,1c3,0.3,6,0.3,8.8,1c0.9,0.4,2.4,0.6,2.5,1.9c0,0.4-0.5,0.7-0.9,0.9
	c-3.2,0.9-6.7,1.9-9.9,0.5c-0.4-0.2-0.2-0.9,0.2-1.1c2.6-1.3,4.7,2.2,7.5,0.6c0.4-0.3,1.3-0.2,1.1-1.1c-2.5-1.5-6.1-2.2-9-1
	c-0.7,0.4-1.2,1.2-1.2,2.2c0.1,1.3,1.2,2.4,2.4,3c3,1.7,7.6,1.8,10.6-0.1c1.2-0.9,1.7-2.4,1.6-3.6c-0.1-1.6-0.7-3.5-2.3-3.9
	c-3-0.8-6.3-0.9-9.5-1.4c-0.3-0.1-0.8-0.2-0.7-0.6c3.7-1.2,8-0.9,11.9-1.5C71.9,26.6,72.4,25.8,72.4,25.2L72.4,25.2z M54.7,26.7
	L54.7,26.7L54.7,26.7c0-1-0.2-1.9-1.2-2.4c-0.4-0.2-0.8,0.1-1,0.5c-0.8,2.7-0.8,5.8-0.9,8.7c0.1,1.8-0.2,3.9,0.7,5.4
	c0.3,0.3,1.1,0.5,1.7,0.4c0.4-0.2,1-0.3,1.1-0.9C55.3,34.3,55.1,30.6,54.7,26.7L54.7,26.7z M99.8,26.2L99.8,26.2L99.8,26.2
	c-0.4-0.6-1.1-1.6-1.5-1.7c-2.4-0.3-5.1,0-7.5,0.5c-1.1,0.2-2.2,0-3.1,0.5c-0.2,1.7,1.7,1.7,2.5,2.5c-0.7,0.8-0.4,2.4-1.7,2.4
	c-0.5,0.1-0.8,0.6-0.7,1.2c0.8,1.3-0.5,2.5-0.8,3.7c-0.4,1.7,0.1,3.7,1.5,4.3c3.5,1.5,6.8-0.6,9.4-2.6c0.3-0.6-0.1-1.2-0.4-1.7
	c-1.5-0.3-3.2,0.1-4.7,0.4c-0.8,0.1-1.5,0.6-2.2,0.1c0.4-1,0.3-2.3,1.3-2.9c0.8-0.4,3.4,0,5-0.2c0.6,0,0.8-1.4,0.6-1.7
	c-0.9-1.2-2.8-0.5-4.1-0.6c-0.2,0-0.4-0.2-0.6-0.3c-0.2-0.7,0.2-1.5,0.8-2c2.1-0.2,4.6,0.1,6.4-0.7C100.2,27,100,26.5,99.8,26.2
	L99.8,26.2z M41.8,16.9c3.7,3.1,8.6,8.3,8,14.3c-0.7,4.7-5.8,8.3-10,9.5c-4.1,1.2-9.3,1.1-13.6,0.1c-0.3,0.8-0.6,1.7-1.5,2
	c-0.6,0.2-1.3,0.1-1.7-0.3c-1.3-1.2-0.2-3.4-2.1-4.2c-3.6-1.5-7.4-4.5-9.3-8.1c-0.2-0.7,0-1.5,0.5-2c2.8-2.2,6.3-3.1,9.9-3.8
	c0.2,0.1,0.1-0.2,0.3-0.3c0.2-2.4,0.3-4.9,1.1-7.1c0.2-0.3,0.6-0.4,0.9-0.2c2.2,1.7,1.2,4.9,2.2,7.2c4.3,0.2,8.5,0.4,11.9,2.8
	c1.1,0.9,1.4,2.7,1.1,3.7c-0.4,1-1.5,1.7-2.6,1.8c-0.7,0-2.1,0.1-2-0.5c0.1-0.6,2.5-1.5,1.7-2.2c-1.1-1.1-6.4-1.7-9.7-2.2
	c-0.4-0.1-0.8,0-0.8,0.5c-0.1,3.1-0.3,6.5,0.2,9.5c0,0.2,0.3,0.4,0.5,0.5c5.8,0.9,11.9,0.4,16.5-2.9c2.1-1.7,2.8-4.1,2.4-6.7
	c-1.8-7.3-9.5-11.8-15.8-14.6C23.7,11,17,9.6,9.7,10c-1.2,0.1-3,0.5-3,0.9c0,0.4,2.1,0.3,1.8,1.1c-0.3,0.8-2.4,0.3-3,0.1
	c-0.6-0.2-0.6-1.1-0.4-1.7c1.6-2.8,6-3,8-3.1C24.1,7,34.8,11.2,41.8,16.9L41.8,16.9L41.8,16.9L41.8,16.9z M21.9,27.8
	c-2.8,0-5.8,0.3-8.4,1.3c-0.5,0.2-1.2,0.8-0.8,1.5c1.1,1.4,2.6,2.6,4,3.4c1.4,0.8,3.3,1.9,5,2.1c0.4-2.6,0.4-5.2,0.4-8
	C22,28,22.2,27.9,21.9,27.8L21.9,27.8L21.9,27.8L21.9,27.8z M105.8,24.1c-0.1,3.5-3.4,5.7-3.4,9.3c0.1,0.1,0.2,0.3,0.4,0.2
	c2.6-2.9,5.2-7,9.1-8.2c1-0.1,1.9,0.8,2.3,1.5c1.3,2.7,1,6.5-0.9,8.9c-1.9,2.4-5.3,4.8-9.1,4.4c-1.6,3.9-2.7,8-3.3,12.3
	c-0.3,0.9-1.1,0.1-1.6-0.1c-3.3-2.6-0.6-9.5-0.4-10.3c0.2-0.9,1.1-2.9,1.7-4.7c-1.5-2.8-0.6-6.1,0.7-8.6c1-1.7,2.3-3.4,3.9-4.7
	C105.5,23.9,105.7,23.9,105.8,24.1L105.8,24.1L105.8,24.1L105.8,24.1z M112.4,28.5c-0.5-0.1-0.7,0.6-1.1,0.7
	c-1.9,2.1-3.7,4.2-4.7,6.7c1.3,0.2,2.3-0.6,3.4-1.1c1.9-1.2,3-3.1,2.9-5.4C112.8,29.1,112.5,28.8,112.4,28.5L112.4,28.5L112.4,28.5
	L112.4,28.5z"/>
</svg>
