<svg version="1.1" id="microsoft" xmlns="http://www.w3.org/2000/svg" xmlns:xlink="http://www.w3.org/1999/xlink" x="0" y="0" viewBox="0 0 120 60" xml:space="preserve" enable-background="new 0 0 120 60"><path d="M5,18.4h11.1v11H5V18.4z M17.3,29.4h11.1v-11H17.3V29.4z M5,41.6h11.2v-11H5V41.6z M17.3,41.6h11.1v-11H17.3V41.6z M37.8,25.9c0.1,0.4,0.2,0.7,0.3,1c1.4,3.3,2.7,6.6,4.1,9.8c0,0.1,0.2,0.2,0.3,0.2c0.3,0,0.7,0,1,0c0.2,0,0.4-0.1,0.4-0.3	c1.1-2.7,2.2-5.4,3.3-8.1c0.4-0.9,0.7-1.9,1-2.6v10.9h2.4V23c-1,0-2,0-3,0c-0.2,0-0.3,0.1-0.4,0.3c-1.1,2.7-2.2,5.3-3.3,8	c-0.3,0.7-0.6,1.5-0.8,2.2C43.1,33.3,43,33.2,43,33c-1.3-3.2-2.6-6.5-3.9-9.7C39,23.1,38.9,23,38.7,23c-1,0-2,0-3,0	c-0.1,0-0.1,0-0.2,0v13.9h2.2V25.9z M104.2,36.9h2.4v-8h3.5v0.4c0,1.6,0,3.1,0,4.7c0,0.3,0,0.7,0.1,1c0.2,1.2,0.9,1.9,2,2.1	c0.6,0.1,1.2,0.1,1.9,0c0.9-0.1,0.9-0.2,0.9-1v-1.2c-0.1,0.1-0.2,0.1-0.2,0.1c-1.2,0.6-2.1,0.1-2.1-1.2c0-1.6,0-3.2,0-4.8	c0,0,0-0.1,0-0.1h2.3V27h-2.4v-3c-0.5,0.2-1,0.3-1.5,0.5c-0.3,0.1-0.7,0.1-0.8,0.3c-0.1,0.2-0.1,0.6-0.1,0.9c0,0.4,0,0.9,0,1.3h-3.5	c0-0.5,0-1,0-1.5c0.1-1.1,0.8-1.6,1.9-1.4c0.2,0,0.5,0.1,0.8,0.2c0-0.6,0-1.2,0-1.8c0-0.1-0.1-0.2-0.2-0.2c-0.3-0.1-0.7-0.1-1-0.1	c-2.2-0.1-3.7,1.3-3.8,3.5c0,0.5,0,1,0,1.5h-1.6v1.9h1.6V36.9z M83.1,31.8c0-0.2,0-0.4,0-0.7c-0.2-2-1.4-3.6-3.3-4.1	c-0.9-0.3-1.8-0.3-2.7-0.2c-2,0.3-3.4,1.3-4,3.2c-0.4,1.2-0.5,2.5-0.1,3.7c0.5,1.8,1.6,2.9,3.4,3.3c1.1,0.3,2.1,0.2,3.2,0	c0.7-0.2,1.4-0.5,1.9-1C82.7,34.8,83.1,33.4,83.1,31.8 M80.7,32.2c-0.1,0.5-0.2,1.1-0.4,1.7c-0.4,1-1.3,1.5-2.5,1.4	c-1.4-0.1-2.3-1-2.5-2.5c-0.1-0.7-0.1-1.4,0.1-2.1c0.4-1.3,1.3-2,2.8-1.9c1.2,0,2.1,0.8,2.4,2.1C80.6,31.2,80.6,31.6,80.7,32.2 M92,32.1c0,0.2,0,0.4,0,0.6c0.1,1.7,0.9,3.1,2.5,4c1,0.5,2,0.6,3.1,0.6c2.2-0.1,3.9-1.3,4.5-3.3c0.4-1.4,0.4-2.8-0.1-4.1	c-0.5-1.5-1.6-2.4-3.1-2.8c-1-0.2-2-0.2-3,0c-1.7,0.3-2.9,1.3-3.5,2.8C92.1,30.5,92,31.2,92,32.1 M94.4,31.9	c0.1-0.5,0.2-1.1,0.4-1.6c0.4-1.1,1.4-1.7,2.7-1.6c1.1,0,1.9,0.7,2.2,1.8c0.3,0.9,0.3,1.9,0,2.8c-0.3,1.2-1.1,1.9-2.4,1.9	c-1.3,0-2.3-0.6-2.6-1.8C94.5,33,94.5,32.5,94.4,31.9 M90.4,29.2c0-0.6,0-1.2,0-1.8c0-0.2-0.1-0.3-0.3-0.4c-0.5-0.1-1-0.2-1.5-0.3	c-1.1-0.1-2.2,0.1-3.1,0.7c-1.7,1.1-1.7,3.9,0.2,4.8c0.4,0.2,0.7,0.4,1.1,0.5c0.5,0.2,0.9,0.5,1.4,0.7c0.4,0.2,0.4,0.6,0.4,1	c-0.1,0.4-0.3,0.6-0.7,0.7c-0.5,0.2-1,0.2-1.6,0c-0.7-0.2-1.4-0.5-2.1-0.8c0,0.6,0,1.2,0,1.9c0,0.2,0.1,0.3,0.3,0.4	c0.6,0.1,1.2,0.3,1.8,0.4c1.2,0.1,2.4,0,3.4-0.7c1.6-1.1,1.7-3.7-0.1-4.7c-0.4-0.2-0.9-0.4-1.3-0.7c-0.4-0.2-0.8-0.4-1.2-0.6	c-0.4-0.2-0.6-0.6-0.5-1.1c0.1-0.4,0.4-0.7,0.8-0.8c0.4-0.1,0.9-0.1,1.3,0C89.3,28.8,89.8,29.1,90.4,29.2 M65,29.5	c0-0.8,0-1.5,0-2.2c0-0.1-0.1-0.2-0.2-0.2c-0.6-0.1-1.1-0.3-1.7-0.4c-1.6-0.1-3.1,0.2-4.4,1.4c-1.5,1.5-1.8,3.3-1.5,5.3	c0.3,1.6,1.2,2.7,2.7,3.3c1.6,0.7,3.3,0.6,4.9-0.2c0.1,0,0.2-0.1,0.2-0.2c0-0.7,0-1.3,0-2c-0.5,0.2-1,0.5-1.6,0.7	c-1.7,0.5-3.3-0.3-3.7-2c-0.2-0.8-0.2-1.6,0.1-2.4c0.4-1.2,1.5-2,2.8-2c0.8,0,1.5,0.2,2.1,0.6C64.7,29.4,64.8,29.5,65,29.5 M66.7,36.9h2.4v-0.4c0-1.6,0-3.1,0-4.7c0-0.6,0.1-1.2,0.4-1.8c0.5-0.9,1.3-1.3,2.3-1c0.3,0.1,0.5,0.2,0.8,0.2c0-0.7,0-1.4,0-2.1	c0-0.1-0.1-0.2-0.2-0.2c-0.9-0.3-2,0-2.7,0.8c-0.2,0.3-0.4,0.6-0.6,0.9V27h-2.4V36.9z M53,36.9h2.4V27H53V36.9z M54.2,22.8	c-0.8,0-1.4,0.6-1.4,1.4c0,0.8,0.6,1.3,1.4,1.3c0.8,0,1.5-0.6,1.5-1.4C55.7,23.4,55.1,22.8,54.2,22.8"/></svg>