<svg version="1.1" id="microsoft" xmlns="http://www.w3.org/2000/svg" xmlns:xlink="http://www.w3.org/1999/xlink" x="0" y="0" viewBox="0 0 120 60" xml:space="preserve" enable-background="new 0 0 120 60"><path d="M99.3,21.1c-0.9-0.1-1.8-0.2-2.7-0.3c0-0.2-0.1-0.3-0.1-0.5c0.1,0,0.2,0,0.2,0c2.5,0,5.1,0,7.6,0c1.3,0,2.6,0.1,3.9,0.4	c0.7,0.2,1.4,0.4,2,0.8c0.7,0.5,1.1,1.1,1.3,1.9c0.1,0.6,0,1.1-0.2,1.7c-0.4,1-0.9,1.8-1.7,2.5c-0.5,0.5-1,0.9-1.5,1.2	c-0.1,0-0.1,0.1-0.2,0.1c1,1.8,2.1,3.6,3.3,5.3c1.2,1.7,2.4,3.4,3.8,5c-0.4,0.1-0.7,0.1-1.1,0.2c-0.1,0-0.2,0-0.3-0.1	c-0.3-0.2-0.7-0.5-1-0.8c-1.2-1-2.2-2.1-3.3-3.3c-1.5-1.7-3-3.4-4.4-5.1c-0.1-0.1-0.2-0.2-0.4-0.2c-0.7,0.1-1.4,0.1-2.1,0.1	c0,0-0.1,0-0.1,0c-0.1,0.4,0,7,0.1,7.6c0.9,0.2,1.8,0.2,2.7,0.4c0,0.2,0.1,0.3,0.1,0.5c-2.9-0.1-5.8-0.1-8.8,0c0-0.1,0-0.2,0-0.3	c0-0.1,0-0.2,0.1-0.3c0.9-0.1,1.8-0.2,2.7-0.4c0-0.2,0-0.4,0.1-0.6c0-1.5,0.1-3,0.1-4.6c0-2,0-4,0-6c0-1.7,0-3.3-0.1-5	C99.4,21.5,99.4,21.3,99.3,21.1 M102.4,29.4c0.1,0,0.1,0,0.1,0c1,0,2.1-0.1,3.1-0.5c1.7-0.7,2.7-1.9,2.9-3.7c0.1-1.1-0.2-1.9-1-2.7	c-0.4-0.4-1-0.7-1.6-0.9c-1-0.4-2-0.5-3-0.5c-0.1,0-0.2,0-0.4,0C102.4,23.8,102.4,26.6,102.4,29.4 M51.7,21.1	c0.7-0.1,1.4-0.2,2.2-0.4c0-0.2,0.1-0.3,0.1-0.5c-1.4,0-2.7,0.1-4,0.1c-1.3,0-2.6,0-4,0c0,0.2,0,0.3,0.1,0.5c0.1,0,0.2,0,0.3,0.1	c0.3,0.1,0.7,0.2,1,0.2c0.2,0,0.4,0.1,0.5,0.3c0.5,0.7,1.1,1.4,1.6,2.1c1.4,1.9,2.8,3.8,4.2,5.7c0,0,0,0.1,0.1,0.1	c0,0,0,0.1-0.1,0.1c-1.1,1.5-2.2,3-3.4,4.5c-0.9,1.1-1.7,2.3-2.7,3.4c-0.4,0.5-0.9,0.7-1.5,0.8c-0.1,0-0.3,0-0.4,0.1	c-0.1,0-0.2,0-0.3,0.1c-0.1,0.2-0.1,0.3-0.2,0.5c0.5,0,1-0.1,1.6-0.1c1.5,0,3,0,4.6,0.1c0.2,0,0.3,0,0.5,0c0-0.2-0.1-0.4-0.1-0.5	c-0.7-0.1-1.4-0.2-2.1-0.4c0.2-0.9,4-7.1,4.7-7.7c0.1,0.1,0.1,0.2,0.2,0.3c0.6,0.8,1.3,1.6,1.9,2.4c1.5,1.8,3,3.6,4.6,5.2	c0.6,0.6,1.3,1.1,1.9,1.7c0.1,0.1,0.2,0.1,0.2,0.1c0.3-0.1,0.6-0.2,1-0.2c-2.7-3.9-5.4-7.8-8.1-11.6c0.1-0.1,0.1-0.2,0.2-0.2	c0.5-0.7,1-1.3,1.6-2c1.1-1.3,2.3-2.7,3.4-4c0.5-0.6,0.5-0.6,1.3-0.7c0.3-0.1,0.6-0.1,0.9-0.2c0-0.2,0-0.4,0-0.5c-1,0-2,0.1-3,0.1	c-1,0-2,0-3-0.1c0,0.1,0,0.2,0,0.3c0,0.1,0,0.2,0.1,0.3c0.6,0.1,1.2,0.2,1.8,0.4c-1.2,2.1-2.5,4-3.9,5.9	C55.3,26.6,51.9,21.7,51.7,21.1 M77.8,21.1c-0.7-0.2-1.3-0.2-2-0.4c0-0.2,0-0.3,0-0.5c2.6,0.2,5.1,0.1,7.7,0c0,0.2,0,0.4-0.1,0.5	c-0.7,0.1-1.3,0.2-2,0.3c0,0.2,0.1,0.3,0.1,0.4c0.7,2,1.4,4.1,2.1,6.1c0.9,2.7,1.9,5.3,3,7.9c0.3,0.7,0.6,1.4,1,2.1	c0.1,0.2,0.2,0.2,0.4,0.3c0.6,0.1,1.2,0.2,1.9,0.3c0,0,0.1,0,0.2,0c0,0.2,0,0.3,0.1,0.5c-2.9-0.1-5.7-0.1-8.6,0	c0-0.2,0.1-0.4,0.1-0.5c0.9-0.1,1.7-0.2,2.6-0.4c-0.9-2.6-1.7-5.1-2.7-7.6c-0.1,0-0.2,0-0.3,0c-1.3,0.1-2.6,0.1-3.9,0.2	c-0.5,0-1,0.1-1.5,0.1c-0.2,0-0.3,0.1-0.4,0.3c-0.3,0.9-0.5,1.9-0.8,2.8c-0.3,1.2-0.6,2.4-0.8,3.7c0,0.2-0.1,0.4-0.1,0.6	c0.7,0.2,1.5,0.3,2.2,0.4c0,0.2,0.1,0.3,0.1,0.5c-1.2,0-2.3-0.1-3.4-0.1c-1.1,0-2.3,0-3.4,0.1c-0.1-0.2,0-0.3,0-0.5	c0.4-0.1,0.8-0.1,1.2-0.2c0.3,0,0.5-0.1,0.8-0.1c0.2,0,0.2-0.1,0.3-0.2c0.2-0.6,0.5-1.1,0.7-1.7c1.4-3.5,2.7-7.1,4-10.6	c0.5-1.3,1-2.6,1.4-3.9C77.8,21.3,77.8,21.2,77.8,21.1 M78.6,21.5c-0.1,0.1-0.1,0.2-0.1,0.3c-0.4,1-0.7,2.1-1.1,3.1	c-0.5,1.3-0.9,2.6-1.4,3.9c0,0.1-0.1,0.2-0.1,0.4c1.8,0,3.6,0.1,5.4,0.1C80.4,26.7,79.5,24.2,78.6,21.5 M12.3,30.9	c0.1,0,0.1,0,0.2,0c1.5-0.3,2.9-0.8,4.1-1.6c1-0.7,1.8-1.5,2.3-2.7c0.4-0.8,0.5-1.6,0.5-2.5c0-1-0.5-1.8-1.3-2.4	c-0.6-0.5-1.3-0.8-2.1-1c-1.3-0.3-2.5-0.4-3.8-0.4c-2.3,0-4.7,0-7,0c-0.1,0-0.1,0-0.2,0c0,0.2,0.1,0.3,0.1,0.5	c0.9,0.1,1.8,0.1,2.7,0.4c0,0.2,0,0.4,0,0.6c0,1.6,0.1,3.1,0.1,4.7c0,3,0,6.1,0,9.1c0,0.7,0,1.3-0.1,2c0,0.1,0,0.1,0,0.2	c-0.9,0.1-1.8,0.2-2.7,0.4c0,0.2-0.1,0.4-0.1,0.5c3.1-0.1,6.2-0.1,9.4,0c0-0.2-0.1-0.4-0.1-0.5C13.1,38,12,38,11,37.8	c0-0.1,0-0.2,0-0.2c0-1-0.1-2-0.1-3c0-1.5,0-3,0-4.5c0-2.8,0-5.6,0.1-8.3c0-0.2,0-0.4,0-0.6c0,0,0.1,0,0.1,0c0.9,0,1.9,0.1,2.7,0.4	c1.3,0.4,2.1,1.4,2.5,2.7c0.2,0.7,0.1,1.3,0.1,2c-0.1,1-0.5,1.9-1.2,2.6c-0.7,0.7-1.5,1.2-2.4,1.4c-0.1,0-0.2,0.1-0.3,0.1	C12.3,30.4,12.3,30.6,12.3,30.9 M33.3,21.7c-0.3-0.2-0.7-0.5-1-0.7c-0.1,0.1-0.2,0.2-0.4,0.3c0-0.1,0-0.2,0-0.3	c0.1-0.2,0.2-0.4,0.4-0.5c0.2-0.2,0.4-0.2,0.6,0c0.2,0.3,0.5,0.5,0.6,0.9c0,0,0,0.1,0.1,0.1c0.2-0.2,0.4-0.4,0.6-0.7	c0.1-0.1,0.2-0.3,0.4-0.4c0.1-0.1,0.3-0.1,0.4,0c0,0,0.1,0.1,0.1,0.2c0.1,0.1,0.2,0.2,0.3,0.3c0.8,0.5,1.7,0.7,2.6,0.8	c1.2,0.1,2.2,0.4,3.2,1c0.5,0.3,0.8,0.7,1.2,1.1c0,0.1,0.1,0.1,0.1,0.2c0.2,0.4,0.2,0.4-0.1,0.7c-0.7,0.9-1.6,1.8-2.4,2.6	c-1.1,1.1-2.3,2.2-3.5,3.3c-0.2,0.1-0.3,0.3-0.5,0.4c-0.1,0.1-0.2,0.1-0.3,0c-0.2-0.1-0.3-0.2-0.5-0.4c-0.3-0.3-0.6-0.7-0.9-1	c-0.3-0.4-0.5-0.8-0.6-1.3c-0.1-0.6-0.2-1.1-0.2-1.7c-0.1-1.1-0.5-2.2-1.3-3c-0.2-0.2-0.2-0.2,0-0.5c0.4-0.4,0.7-0.8,1.1-1.3	C33.2,21.8,33.2,21.7,33.3,21.7 M35.4,22.2c0.1-0.2,0.1-0.2,0-0.3c-0.2-0.2-0.5-0.4-0.7-0.6c0,0-0.1,0-0.2,0	C34.8,21.6,35.1,21.9,35.4,22.2 M35,22.5c0.1-0.2,0.1-0.2,0-0.3c-0.2-0.2-0.5-0.4-0.7-0.7c0,0-0.1,0-0.1,0c0,0,0,0,0,0.1	C34.4,21.9,34.7,22.3,35,22.5 M33.6,22.4L33.6,22.4c0.1,0.3,0.3,0.6,0.5,0.8c0,0,0.1,0.1,0.2,0.1c0-0.2,0-0.2,0-0.3	c-0.2-0.2-0.4-0.4-0.6-0.6C33.6,22.4,33.6,22.4,33.6,22.4 M33.2,22.8L33.2,22.8c0,0.1,0.1,0.2,0.2,0.3c0.1,0.2,0.3,0.3,0.4,0.5	c0.1,0.1,0.1,0.1,0.2,0c-0.1-0.1-0.3-0.3-0.4-0.4C33.5,23,33.4,22.8,33.2,22.8 M34.7,22.9c0-0.3-0.2-0.4-0.4-0.5	c-0.1-0.1-0.2-0.3-0.5-0.4c0.2,0.3,0.4,0.6,0.7,0.8C34.6,22.9,34.6,22.9,34.7,22.9 M33.6,24c0.1-0.1,0-0.2,0-0.2	c-0.2-0.2-0.4-0.4-0.6-0.6c0,0-0.1,0-0.1,0C33.1,23.5,33.4,24,33.6,24 M30,33c-0.4,0.1-0.8,0.3-1.2,0.4c-0.1,0-0.2,0-0.3-0.1	c-0.1-0.2-0.2-0.3-0.3-0.5c-0.2-0.4-0.4-0.8-0.7-1.2c-0.2-0.4-0.5-0.7-0.8-1c-0.1-0.1-0.2-0.1-0.3-0.1c-0.2,0-0.5,0.1-0.7,0.3	c0.1,0.1,0.1,0.2,0.2,0.3c0.3,0.4,0.6,0.8,1,1.2c0.6,0.6,1.1,1.3,1.7,1.9c0.1,0.2,0.3,0.2,0.5,0.2c0.3,0,0.6,0,0.9,0V35	c-0.1,0.1-0.3,0.1-0.3,0.3c0,0.2,0.2,0.2,0.2,0.4c0,0-0.1,0.1-0.1,0.1c-0.3,0.2-0.7,0.2-1,0.3c-0.6,0.1-1.2,0.2-1.8,0.2	c-0.6,0.1-1.1,0.2-1.6,0.4c-0.5,0.2-0.9,0.5-0.9,1.1c0,0.1-0.1,0.1-0.1,0.2c-0.1,0.1-0.2,0.2-0.2,0.4c0,0.2,0,0.2,0.2,0.3	c0.2,0,0.4,0.1,0.6,0.1c0.4,0,0.8,0,1.3,0c1.5,0,3,0,4.4,0c1.9,0,3.9,0,5.8,0c0.1,0,0.2,0,0.3,0c0.1,0,0.1-0.1,0.2-0.1	c0.1-0.2,0.1-0.6-0.2-0.7c-0.1-0.1-0.2-0.2-0.2-0.3c-0.1-0.3-0.3-0.5-0.5-0.6c-0.3-0.1-0.5-0.3-0.8-0.4c-0.8-0.3-1.7-0.4-2.5-0.5	c-0.5-0.1-1-0.2-1.5-0.3c-0.1,0-0.2-0.1-0.3-0.1c0.2-0.5,0.2-0.5-0.1-0.7v-0.5c0.1,0,0.2,0,0.3,0c0.3,0,0.6,0.1,0.8,0.1	c0.1,0,0.2,0,0.2-0.1c0-0.1,0-0.2,0-0.2c0-0.1-0.1-0.1-0.1-0.2c-0.1-0.3-0.3-0.7-0.4-1c-0.1-0.2-0.2-0.3-0.4-0.2c-0.1,0-0.2,0-0.2,0	c-0.2-0.3-0.4-0.5-0.6-0.7c-0.5-0.6-0.9-1.2-1.4-1.7c-0.1-0.1-0.2-0.2-0.3-0.2c-0.3-0.1-0.5-0.1-0.8,0c-0.1,0.1-0.2,0.1-0.1,0.3	c0.1,0.2,0.2,0.4,0.4,0.6c0.2,0.3,0.4,0.5,0.7,0.7C29.1,32.1,29.5,32.5,30,33 M28.2,27.6c0.2,0.1,0.3,0.2,0.4,0.3	c0.3,0.2,0.6,0.4,0.9,0.7c0.1,0.1,0.2,0.1,0.3,0.1c0.2-0.1,0.5-0.1,0.7-0.2c0.2,0,0.3,0,0.5,0c0.4-1.2,1-2.3,1.6-3.5	c0,0,0.1,0,0.1,0c0.2,0.1,0.4,0.5,0.3,0.8c0,0,0,0.1,0,0.1c-0.4,0.8-0.8,1.7-1.2,2.5c-0.1,0.1-0.1,0.2-0.2,0.2c-0.1,0-0.2,0-0.2,0.1	c-0.1,0.1-0.2,0.2-0.4,0.2c0,0,0,0-0.1,0c-0.5,0.4-1,0.6-1.6,0.7c-0.9,0.2-1.8,0.5-2.8,0.7c-0.4,0.1-0.8,0.2-1.2,0.3	c-0.1,0-0.2,0.1-0.2,0.2c-0.1,0.1-0.1,0.2-0.3,0c-0.2-0.2-0.2-0.4-0.2-0.6c0.2-0.7,0.5-1.4,0.7-2.2c0-0.1,0.1-0.2,0.1-0.3	c0-0.3,0.2-0.4,0.4-0.5c0.9-0.2,1.8-0.4,2.7-0.7c0.4-0.1,0.8-0.2,1.2-0.3c0.5-0.1,1.1-0.2,1.6-0.3c0.1,0,0.3,0,0.3,0.1	c0.1,0.1-0.1,0.2-0.2,0.3c-0.2,0.2-0.4,0.3-0.6,0.4c-0.3,0.1-0.5,0.2-0.8,0.3c-0.4,0.1-0.8,0.2-1.2,0.3	C28.7,27.4,28.5,27.5,28.2,27.6 M26.2,29.6c0.8-0.2,1.6-0.3,2.3-0.7c0,0,0-0.1-0.1-0.1c-0.4-0.3-0.8-0.6-1.2-0.9	c-0.1-0.1-0.2-0.1-0.3-0.1c-0.3,0.1-0.6,0.2-0.9,0.2C26.2,28.6,26.1,29.1,26.2,29.6"/></svg>