<svg version="1.1" id="sega" xmlns="http://www.w3.org/2000/svg" xmlns:xlink="http://www.w3.org/1999/xlink" x="0" y="0" viewBox="0 0 120 60" xml:space="preserve" enable-background="new 0 0 120 60"><path d="M45.7,22.2h12.2v3.7H47.3c-0.5,0-0.9,0.4-0.9,0.9h8.8v3.4H42.6v-4.9C42.6,23.6,44,22.2,45.7,22.2z M46.3,34.7h8.8v-3.4H42.6	v4.9c0,1.7,1.4,3.1,3.1,3.1h12.2v-3.7H47.3C46.8,35.7,46.3,35.3,46.3,34.7z M23.8,22.2c-2.3,0.1-4.1,1.9-4.1,4.1	c0,2.3,1.9,4.1,4.2,4.1h4.8c1.9,0.7,3.5,2.6,3.5,4.7c0,2.8-2.6,5-5.5,5H15v3.7h12.2c4.8,0,8.8-3.8,8.8-8.6c0-4.7-4.2-8.6-9.1-8.6v0	l0,0h-2.8c-0.3,0-0.6-0.3-0.6-0.6c0-0.3,0.3-0.6,0.6-0.6h4H36v-3.4H23.9C23.9,22.2,23.8,22.2,23.8,22.2z M15,26.2	c0,4.7,4.2,8.6,9.1,8.6v0l0,0h2.8c0.3,0,0.6,0.3,0.6,0.6c0,0.3-0.3,0.6-0.6,0.6h-4H15v3.4h12.1c0.1,0,0.1,0,0.2,0	c2.3-0.1,4.1-1.9,4.1-4.1c0-2.3-1.9-4.1-4.2-4.1h-4.8c-1.9-0.7-3.5-2.6-3.5-4.7c0-2.8,2.6-5,5.5-5H36v-3.7H23.8	C18.9,17.6,15,21.4,15,26.2z M37.9,24v13.3c0,3.5,2.9,6.4,6.6,6.4h13.5v-3.7H44.8c-1.7,0-3.1-1.4-3.1-3.1V24.3	c0-1.7,1.4-3.1,3.1-3.1h13.2v-3.7H44.5C40.8,17.6,37.9,20.5,37.9,24z M68.9,25.9h10.7v-3.7H67.4c-1.7,0-3.1,1.4-3.1,3.1v11	c0,1.7,1.4,3.1,3.1,3.1h7.5v-8.3h-6v3.7h2.2v0.9h-2.2c-0.5,0-0.9-0.4-0.9-0.9v-8C68,26.3,68.4,25.9,68.9,25.9z M98.3,21.3	c-0.7-2.5-3.1-4.3-5.9-4.3c-2.8,0-5.1,1.8-5.9,4.3l-7,20.7V26.8H68.9v3.4h6.9v10.1h-9.4c-1.7,0-3.1-1.4-3.1-3.1V24.3	c0-1.7,1.4-3.1,3.1-3.1h13.2v-3.7H66.1c-3.6,0-6.6,2.9-6.6,6.4v13.5c0,3.5,2.9,6.4,6.6,6.4h12.9h0.6h3.1l7.6-21.8	c0.3-1,1.1-1.7,2.1-1.7c1,0,1.8,0.7,2.1,1.7l6.3,18.1l-10,0l0,3.7h15L98.3,21.3z M90.9,35.8L88,43.9h-4.4l6.8-19.6	c0.3-0.9,1.1-3.3,2-3.3c0.9,0,1.7,2.5,2,3.3l5.2,15h-8.7V35.8z M90.9,35.6h2.9l-1.5-4.1L90.9,35.6z"/></svg>