<svg version="1.1" id="microsoft" xmlns="http://www.w3.org/2000/svg" xmlns:xlink="http://www.w3.org/1999/xlink" x="0" y="0" viewBox="0 0 120 60" xml:space="preserve" enable-background="new 0 0 120 60"><path d="M23.7,21.1H26v6c-0.7,0-1.3,0-2,0c-0.1,0-0.2-0.1-0.2-0.1c-0.4-1.7-1.7-2.6-3.2-3.2c-3.1-1.1-6.2-1.3-9.4-0.3	c-0.5,0.1-0.9,0.4-1.2,0.8c-0.8,0.8-0.5,1.9,0.5,2.2c0.8,0.2,1.7,0.3,2.5,0.5c2.6,0.4,5.2,0.6,7.8,1c1.6,0.2,3.1,0.7,4.4,1.7	c2.3,1.7,2.9,5.9-0.3,8c-1.5,0.9-3.1,1.4-4.7,1.8c-4,0.7-7.8,0.1-11.4-1.5c-0.4-0.2-0.7,0-0.7,0.4c0,0.2,0,0.4,0,0.7c0,0,0,0,0,0.1	H5.6v-6.8c0.5,0,0.9,0,1.4,0c0.3,0,0.7-0.1,0.9,0C8,32.4,8,32.8,8.1,33.1c0.3,1.3,1.3,2,2.3,2.6c1.2,0.7,2.4,0.9,3.7,1.2	c2,0.4,4,0.4,6-0.1c0.4-0.1,0.9-0.3,1.3-0.5c0.6-0.2,1-0.6,1.2-1.3c0.2-0.9-0.1-1.7-1-2c-0.8-0.2-1.6-0.4-2.3-0.5	c-2.8-0.4-5.6-0.7-8.4-1.1c-1.4-0.2-2.8-0.7-4-1.6c-2.2-1.6-2.7-5.4,0.2-7.5c1.4-1,3-1.5,4.7-1.8c3.9-0.8,7.7-0.2,11.3,1.5	c0.5,0.3,0.8,0.1,0.8-0.5C23.7,21.4,23.7,21.2,23.7,21.1 M66.4,26.4c0.1,0.1,0.2,0.1,0.2,0.1c1.8,1.6,3.6,3.3,5.5,4.9	c2.6,2.3,5.2,4.7,7.8,7c0.1,0.1,0.3,0.2,0.5,0.2c0.7,0,1.4,0,2.1,0h1c0-0.1,0-0.2,0-0.3c0-1.6,0-3.1-0.1-4.7c0-1,0-1.9,0-2.9	c0-2.1-0.1-4.3-0.1-6.4c0-0.7,0.2-1,1-1c0.6,0,1.3,0,1.9,0c0.1,0,0.3,0,0.4,0v-2.1H76.5v2.1c0.3,0,0.5,0,0.7,0c0.6,0,1.3,0,1.9,0	c0.4,0,0.6,0.3,0.7,0.7c0,0.2,0,0.4,0,0.5c0,1.9,0.1,3.9,0.1,5.8c0,0.5,0,1,0,1.5c-0.3-0.2-0.5-0.4-0.7-0.6	c-3.6-3.3-7.2-6.6-10.9-9.9c-0.2-0.1-0.4-0.2-0.6-0.2c-2.6,0-5.1,0-7.7,0h-0.4c0,0.6,0,1.2,0,1.8c0,0.1,0,0.2,0,0.4	c0.6,0,1.1,0,1.7,0c1.3,0,1.6,0.4,1.6,1.7c0,3.3,0,6.7,0,10c0,0.2,0,0.3,0,0.5c-0.1,0.7-0.3,0.9-1,0.9c-0.7,0-1.4,0-2.1,0v2.1h9.9	v-2.1c-0.1,0-0.1,0-0.1,0c-0.7,0-1.3,0-2,0c-1.2,0-1.3-0.2-1.3-1.4c0-2.8,0-5.6,0-8.3V26.4 M44.2,20.2c-1.9,0-3.9,0.3-5.9,1	c-1.9,0.7-3.6,1.6-4.9,3.1c-2.4,2.8-2.8,7-0.8,10.2c1.2,1.9,2.9,3.1,4.9,4c2.9,1.2,6,1.5,9.1,1.2c2.3-0.3,4.5-0.9,6.5-2.3	c3.7-2.5,5-7,3.3-10.9c-0.9-2.1-2.5-3.5-4.4-4.5C49.6,20.6,47,20.2,44.2,20.2 M51.6,29.6c0,4.2-2.4,7-6.1,7.5	c-1.8,0.3-3.6,0-5.3-0.9c-2.1-1.2-3.2-3-3.5-5.4c-0.2-1.9,0.2-3.8,1.4-5.3c1.1-1.5,2.7-2.3,4.5-2.6c2.1-0.4,4-0.1,5.8,1.1	C50.7,25.4,51.6,27.5,51.6,29.6 M88.7,21.3v2.1c0.6,0,1.1,0,1.6,0c1-0.1,1.8,0.3,2.4,1.1c2.1,2.4,4.2,4.9,6.3,7.3	c0.1,0.1,0.2,0.4,0.2,0.6c0,0.9,0,1.9,0,2.8c0,1.2-0.1,1.3-1.3,1.3c-0.6,0-1.2,0-1.9,0v2.2h11.7v-2.2c-0.1,0-0.3,0-0.4,0	c-0.7,0-1.3,0-2,0c-0.8,0-0.9-0.4-0.9-1c0-1.1,0-2.1,0-3.2c0-0.2,0.1-0.5,0.3-0.7c2.1-2.4,4.2-4.9,6.3-7.3c0.5-0.6,1.1-0.9,1.9-0.9	c0.7,0,1.3,0,2,0v-2.1h-9.7v2.1c0.4,0,0.9,0,1.3,0c0.2,0,0.4,0.1,0.5,0.3c0.1,0.1-0.1,0.4-0.1,0.5c0,0-0.1,0.1-0.1,0.1	c-1,1.2-2,2.3-3,3.5c-0.3,0.4-0.7,0.8-1,1.2c-0.1-0.1-0.1-0.1-0.2-0.1c-1.3-1.6-2.6-3.2-3.9-4.8c-0.1-0.1-0.2-0.4-0.1-0.5	c0.1-0.1,0.3-0.2,0.4-0.2c0.4,0,0.9,0,1.3,0v-2.1H88.7z"/></svg>