<svg version="1.1" id="sega" xmlns="http://www.w3.org/2000/svg" xmlns:xlink="http://www.w3.org/1999/xlink" x="0" y="0" viewBox="0 0 120 60" xml:space="preserve" enable-background="new 0 0 120 60"><path d="M39.1,9c0.3,1,0.5,2.1,0.8,3.1c1.2,4.4,2.3,8.9,3.5,13.3c0.1,0.2,0,0.3-0.1,0.5c-0.7,1.3-1.5,2.6-2.2,3.8	c-0.1,0.2-0.1,0.3,0,0.5c0.7,1.3,1.5,2.5,2.2,3.8c0.1,0.1,0.1,0.3,0.1,0.5c-1.4,5.4-2.9,10.8-4.3,16.3c0,0,0,0.1,0,0.1h-0.5	c-0.1,0-0.2-0.1-0.3-0.1c-5.2-1.4-10.4-2.8-15.6-4.2c-0.1,0-0.3-0.2-0.4-0.3c-0.7-1.3-1.5-2.6-2.2-3.9c-0.1-0.2-0.2-0.3-0.5-0.3	c-1.4,0-2.9,0-4.3,0c-0.2,0-0.4-0.1-0.6-0.2C11,38.1,7.1,34.2,3.3,30.3c-0.1-0.1-0.2-0.1-0.3-0.2V30c0.1-0.1,0.2-0.1,0.2-0.2	C7.1,25.9,11,22,14.9,18c0.2-0.2,0.3-0.2,0.5-0.2c1.5,0,2.9,0,4.4,0c0.2,0,0.3-0.1,0.4-0.2c0.7-1.3,1.4-2.6,2.2-3.9	c0.1-0.1,0.2-0.3,0.4-0.3c4.5-1.2,9-2.5,13.6-3.7C37.2,9.5,38.1,9.3,39.1,9L39.1,9z M11.3,28c0.1,0,0.2,0,0.3,0c4.6,0,9.3,0,13.9,0	c0.2,0,0.3-0.1,0.4-0.3c2.3-4.1,4.6-8.1,7-12.2c0-0.1,0.1-0.2,0.1-0.3c-0.1,0-0.2,0-0.2,0c-4,1.1-8.1,2.1-12.1,3.2	c-0.2,0-0.3,0.1-0.4,0.3c-2.9,3-5.8,6-8.7,9C11.5,27.8,11.4,27.9,11.3,28z M11.3,32.1c0.1,0.1,0.2,0.2,0.2,0.2c2.9,3,5.9,6,8.8,9.1	c0.1,0.1,0.2,0.2,0.4,0.2c3.6,0.9,7.2,1.9,10.8,2.8c0.5,0.1,1,0.3,1.6,0.4c-0.1-0.1-0.1-0.2-0.2-0.3c-2.3-4.1-4.6-8.1-6.9-12.2	c-0.1-0.2-0.2-0.2-0.4-0.2c-4.6,0-9.3,0-13.9,0H11.3z M36.7,42.8c0-0.1,0.1-0.2,0.1-0.2c1.1-4.1,2.3-8.2,3.4-12.3c0-0.1,0-0.3,0-0.4	c-1-3.5-1.9-7-2.9-10.5c-0.2-0.6-0.4-1.3-0.5-2c-0.1,0.1-0.1,0.2-0.2,0.3c-2.3,4.1-4.7,8.2-7,12.2c-0.1,0.2-0.1,0.3,0,0.5	c1.8,3.2,3.6,6.4,5.5,9.6C35.5,40.8,36.1,41.8,36.7,42.8z M117,21.8c-1.3,0-2.6,0-4,0c-0.2,0-0.3,0.1-0.4,0.3	c-1.3,3.5-2.5,7.1-3.8,10.6c0,0.1-0.1,0.2-0.1,0.3c-0.1-0.2-0.1-0.2-0.1-0.3c-1.3-3.5-2.6-7.1-3.8-10.6c-0.1-0.2-0.2-0.3-0.4-0.3	c-1.2,0-2.5,0-3.7,0c-0.1,0-0.2,0-0.3,0c0,0.1,0.1,0.2,0.1,0.3c2,5.2,4,10.4,6.1,15.7c0.1,0.1,0.1,0.4,0,0.5c-0.8,2-1.7,4-2.5,6	c0,0.1-0.1,0.2-0.1,0.3h0.3c1.2,0,2.4,0,3.5,0c0.3,0,0.4-0.1,0.5-0.3c2.8-7.4,5.7-14.7,8.5-22.1C116.9,22,116.9,21.9,117,21.8	L117,21.8z M51.2,22.1c0,3.3,0,6.6,0,9.9c0,0.9,0.1,1.8,0.3,2.7c0.5,1.8,1.4,3.1,3.1,3.9c1.4,0.6,2.9,0.7,4.4,0.5	c1.6-0.2,2.9-1,3.7-2.5c0,0,0,0,0.1-0.1v2.2h3.7V21.8h-4v0.4c0,2.9,0,5.8,0,8.8c0,0.5,0,1-0.1,1.5c-0.2,1.3-0.9,2.3-2.2,2.7	c-0.6,0.2-1.3,0.3-1.9,0.2c-1.6-0.1-2.6-0.9-3-2.5c-0.2-0.6-0.2-1.3-0.2-2c0-2.9,0-5.8,0-8.8v-0.4h-4C51.2,21.9,51.2,22,51.2,22.1z M83.6,38.4c0-3.3,0-6.6,0-9.9c0-0.9-0.1-1.8-0.3-2.7c-0.5-1.8-1.4-3.2-3.1-4c-1.2-0.6-2.5-0.7-3.9-0.6c-1.4,0.1-2.7,0.6-3.7,1.7	c-0.3,0.3-0.5,0.6-0.7,0.9v-2.1h-3.7v16.8h3.9v-0.4c0-2.9,0-5.8,0-8.7c0-0.5,0-0.9,0.1-1.4c0.2-1.6,1.1-2.7,2.6-3	c0.5-0.1,1-0.2,1.4-0.1c1.7,0.1,2.7,0.9,3.1,2.6c0.2,0.7,0.2,1.4,0.2,2.1c0,2.8,0,5.7,0,8.5v0.4h3.9C83.6,38.5,83.6,38.4,83.6,38.4z M93.3,38.6h4V24.8h2.8c0-0.1-0.1-0.2-0.1-0.3c-0.3-0.8-0.6-1.6-0.9-2.5c-0.1-0.2-0.2-0.3-0.4-0.3c-0.4,0-0.9,0-1.4,0v-5.9h-4v5.9	h-2.7v3.1h2.7V38.6z M85.2,38.6h3.9V21.8h-3.9V38.6z M85.2,19.4h3.9v-3.5h-3.9V19.4z"/></svg>